<?xml version="1.0" encoding="utf-8"?>
<!-- Generator: Adobe Illustrator 14.0.0, SVG Export Plug-In . SVG Version: 6.00 Build 43363)  -->
<!DOCTYPE svg PUBLIC "-//W3C//DTD SVG 1.1//EN" "http://www.w3.org/Graphics/SVG/1.1/DTD/svg11.dtd">
<svg version="1.1" xmlns="http://www.w3.org/2000/svg" xmlns:xlink="http://www.w3.org/1999/xlink" x="0px" y="0px" width="400px"
	 height="600px" viewBox="0 0 400 600" enable-background="new 0 0 400 600" xml:space="preserve">
<g id="レイヤー_10">
	<path fill="#A7D397" stroke="#A7D397" stroke-width="19" d="M303.152,387.516c0,9.248-7.499,16.747-16.747,16.747H111.964
		c-9.249,0-16.746-7.499-16.746-16.747v-174.44c0-9.25,7.498-16.747,16.746-16.747h174.441c9.248,0,16.747,7.498,16.747,16.747
		V387.516z"/>
</g>
<g id="レイヤー_8" display="none">
	<path display="inline" fill="#FFFFFF" d="M203.823,313.287c0,7.204-5.635,13.045-12.585,13.045h-78.963
		c-6.951,0-12.585-5.841-12.585-13.045v-82.53c0-7.205,5.635-13.045,12.585-13.045h78.963c6.951,0,12.585,5.84,12.585,13.045
		V313.287z"/>
	<path display="inline" fill="#FFFFFF" d="M302.344,370.85c0,7.205-5.635,13.045-12.586,13.045h-78.963
		c-6.951,0-12.586-5.84-12.586-13.045v-82.53c0-7.205,5.635-13.045,12.586-13.045h78.963c6.951,0,12.586,5.84,12.586,13.045V370.85z
		"/>
</g>
<g id="レイヤー_9" display="none">
	
		<text transform="matrix(1 0 0 1 107.3335 302.5996)" display="inline" fill="#C1272D" font-family="'NotoSansSC-Regular'" font-size="90">头</text>
</g>
<g id="レイヤー_11" display="none">
	
		<text transform="matrix(1 0 0 1 205.2773 360.1543)" display="inline" fill="#2E3192" font-family="'KozGoPro-Regular-90ms-RKSJ-H'" font-size="90">頭</text>
</g>
<g id="レイヤー_7" display="none">
	<g display="inline">
		<path fill="#006837" d="M126.68,210.32c43.484-32.804,108.94-19.999,149.363,28.038c-1.399-2.075-2.855-4.133-4.389-6.16
			c-39.882-52.866-108.867-68.065-154.084-33.952c-45.218,34.113-49.544,104.622-9.662,157.486c1.531,2.029,3.108,3.995,4.721,5.911
			C77.537,309.583,83.196,243.125,126.68,210.32z"/>
		<path fill="#006837" d="M261.991,389.677c-43.484,32.807-108.939,20.002-149.363-28.034c1.401,2.075,2.858,4.136,4.388,6.161
			c39.881,52.864,108.866,68.064,154.084,33.95c45.217-34.112,49.544-104.623,9.663-157.484c-1.526-2.026-3.107-3.993-4.721-5.912
			C311.135,290.419,305.474,356.874,261.991,389.677z"/>
	</g>
</g>
<g id="レイヤー_6" display="none">
</g>
<g id="レイヤー_5" display="none">
</g>
<g id="レイヤー_4" display="none">
</g>
<g id="レイヤー_2" display="none">
	<g id="XMLID_2_" display="inline">
		<path fill="#606060" d="M268.883,200.22c4.082,2.649,7.1,7.431,6.385,14.661c-0.524,5.324-3.15,10.905-4.729,16.317
			c-1.61,5.522-3.325,11.104-4.021,16.79c-0.847,6.937-0.487,12.436-3.072,17.736c-1.107,2.268-2.458,4.493-4.021,6.386
			c-1.563,1.892-3.851,3.143-5.204,5.203c-2.379,3.621-4.249,9.229-6.148,13.479c-2.623,5.872-6.391,12.225-5.201,19.155
			c-29.876,0.236-58.375-0.903-82.769-6.149c-1.402-5.305-3.547-8.982-5.44-13.242c-1.89-4.259-3.114-8.942-5.673-13.006
			c-1.292-2.05-3.604-3.379-5.204-5.203c-1.7-1.939-2.963-4.195-4.021-6.386c-2.394-4.957-2.602-10.905-3.311-17.499
			c-0.655-6.117-2.122-11.492-3.782-17.026c-1.566-5.21-3.886-10.447-4.73-15.844c-2.649-16.919,14.919-18.861,27.194-22.466
			c3.226-0.946,6.923-2.202,10.407-3.311c3.11-0.989,8.438-1.935,9.694-3.784c1.424-2.091,0.818-5.937,1.183-9.931
			c0.258-2.829,0.532-7.427,1.655-9.458c2.872-5.196,15.076-6.164,21.993-6.386c7.122-0.227,20.219,0.967,23.885,4.966
			c1.834,2.001,2.269,6.263,2.602,9.695c0.405,4.186-0.318,8.373,1.183,10.879c1.242,2.072,6.582,2.942,9.932,4.019
			c3.437,1.106,7.793,2.459,10.641,3.311C255.271,195.208,264.069,197.093,268.883,200.22z"/>
		<path fill="#606060" d="M269.592,394.371c0.532,6.158,1.762,14.065-0.236,18.679c-3.235,7.474-10.958,7.765-21.757,8.278
			c-9.006,0.428-16.579,1.12-26.484,1.655c-3.618,0.194-11.368-0.255-12.769,1.183c-2.533,2.599,1.098,11.286-0.71,15.607
			c-4.101,0-8.2,0-12.298,0c-0.584-5.18,0.482-10.894-0.473-15.371c-3.931-1.662-8.829-1.203-13.715-1.419
			c-9.03-0.397-18.693-1.021-28.376-1.655c-10.673-0.7-19.07-1.989-20.101-12.533c-0.743-7.567,1.637-16.766,1.89-25.304
			c0.111-3.687,0.097-7.483,0.709-10.877c44.393-7.791,86.7-18.931,122.971-34.056c3.673,10.057,9.98,27.381,10.403,41.148
			C268.793,384.47,269.169,389.47,269.592,394.371z"/>
	</g>
</g>
<g id="レイヤー_3" display="none">
	<path display="inline" fill="#2E3192" d="M302.482,313.494c1.382,4.294,2.756,8.595,4.021,13.006
		c-13.413,4.257-28.462,5.974-45.64,6.385c-5.592,0.133-11.753-0.844-17.266,0c-2.319,0.355-4.952,2.074-7.566,3.075
		c-17.558,6.717-38.127,12.194-57.464,17.026c-22.826,5.699-45.694,12.537-73.072,11.35c0.054-4.754,0.653-8.961,0.709-13.715
		c37.941,0.733,65.359-11.1,96.484-17.973c-27.901-3.41-64.749-3.061-79.694-20.101c-2.973-3.392-5.367-8.016-5.439-13.245
		c-0.173-12.485,9.741-17.029,17.262-22.464c2.569,3.739,4.75,7.862,6.859,12.06c-3.335,2.72-10.345,4.574-10.406,10.168
		c-0.04,3.749,4.645,6.804,7.805,8.514c10.193,5.521,25.91,7.741,39.256,9.224c14.146,1.57,29.963,2.363,46.115,2.363
		c5.468,0,11.466,0.752,16.08,0c2.63-0.429,6.124-2.604,8.985-4.019c2.968-1.469,5.622-2.806,8.277-4.494
		c3.937-2.505,12.104-8.161,11.587-13.952c-0.471-5.276-8.079-6.277-12.769-8.041c0.905-4.375,2.36-8.202,3.311-12.533
		c0.203-0.191,0.14-0.648,0.473-0.709c10.771,3.235,22.521,8.202,22.701,21.52c0.13,9.661-7.209,16.729-13.006,21.757
		C282.192,318.269,292.808,316.351,302.482,313.494z"/>
</g>
<g id="レイヤー_12" display="none">
</g>
<g id="レイヤー_13" display="none">
</g>
<g id="レイヤー_14" display="none">
	<g display="inline">
		<path fill-rule="evenodd" clip-rule="evenodd" fill="#F1BE9B" d="M93.718,267.774"/>
	</g>
	<g display="inline">
		<path fill-rule="evenodd" clip-rule="evenodd" fill="#960C88" d="M260.65,261.291c1.661,0,3.321,0,4.981,0
			c6.715,1.738,10.867,6.042,12.681,12.682c0,2.112,0,4.226,0,6.34c-4.405,17.484-19.267,24.511-37.136,28.531
			c-2.279-2-4.692-6.106-4.53-9.056c8.567-2.521,18.076-3.598,24.909-9.059c2.692-2.15,13.35-17.026,3.624-19.927
			c-7.874-2.348-13.4,7.717-16.305,11.774c-4.333,6.056-6.66,12.298-13.134,14.945c-2.013-1.004-2.266-3.772-3.622-5.434
			C239.209,279.402,245.605,266.021,260.65,261.291z"/>
		<path fill-rule="evenodd" clip-rule="evenodd" fill="#960C88" d="M229.159,320.239c-1.431-10.653-7.676-18.667-8.646-28.409
			c1.565-0.232,4.758-0.988,6.176,0c2.287,1.545,4.479,5.805,6.587,10.292c1.629,3.47,5.209,9.099,4.94,11.529
			C237.835,317.127,232.734,318.578,229.159,320.239z"/>
		<path fill-rule="evenodd" clip-rule="evenodd" fill="#960C88" d="M216.809,292.653c3.46,8.342,6.907,16.698,9.469,25.938
			c-2.844,1.653-3.511,4.949-7.822,4.117c-3.78-0.728-7.507-16.065-9.47-20.586c-1.012-2.329-3.131-5.724-2.881-6.998
			C206.8,291.561,213.69,291.225,216.809,292.653z"/>
		<path fill-rule="evenodd" clip-rule="evenodd" fill="#960C88" d="M88.918,370.308c-3.321,0-6.642,0-9.963,0
			c-0.963-0.998-1.869-2.056-2.717-3.17c0-1.056,0-2.113,0-3.171c1.394-2.176,2.059-2.171,4.53-2.716
			c7.587-1.676,14.518-1.034,20.832-2.718c18.901-5.041,27.873-18.995,40.307-30.798c12.21-11.588,26.831-19.828,47.101-23.55
			c4.807-0.881,15.794-4.646,15.852,4.531c-4.737,3.792-11.164,3.762-16.305,4.981c-17.234,4.08-31.658,11.521-42.571,22.19
			c-7.85,7.672-13.637,16.192-23.098,22.645C113.468,364.955,103.694,368.777,88.918,370.308z"/>
		<path fill-rule="evenodd" clip-rule="evenodd" fill="#960C88" d="M210.747,316.414c-5.805,6.839-12.157,12.547-16.757,20.834
			c-4.555,8.201-6.664,17.543-10.417,27.172c-13.353,4.761-4.603-17.495-1.812-24.002c2.384-5.56,6.835-14.167,9.963-17.663
			C195.67,318.346,207.488,307.651,210.747,316.414z"/>
	</g>
	<g display="inline">
		<path fill-rule="evenodd" clip-rule="evenodd" fill="#F1BE9B" d="M118.819,270.009"/>
		<path fill-rule="evenodd" clip-rule="evenodd" fill="#F1BE9B" d="M151.757,230.073c1.235,0,2.47,0,3.705,0
			c23.623,6.524,25.875,38.121,39.525,56.404c3.424,4.586,8.339,5.216,8.646,11.941c-9.161,2.79-17.371-6.078-21.229-12.146
			c-3.56-5.6-5.788-12.225-8.5-18.164c-5.875-12.866-13.16-36.989-31-22.75c-8.06,6.432-11.42,18.584-15.75,29.75
			c-4.528,11.68-10.039,25.597-18.5,30.68c-9.343,5.614-25.788,2.869-33.467-3.172c-1.934-1.521-1.575-4.133-0.421-6.668
			c3.519-4.678,8.948-0.512,14.822,0.822c3.712,0.845,8.185,2.167,12.352,0.823c7.913-2.548,13.258-18.164,16.88-27.584
			C125.633,252.291,132.206,233.601,151.757,230.073z"/>
		<path fill-rule="evenodd" clip-rule="evenodd" fill="#F1BE9B" d="M241.099,311.181"/>
		<path fill-rule="evenodd" clip-rule="evenodd" fill="#F1BE9B" d="M324.9,293.919c1.583,0.834,2,2.334,0.084,4.834
			c-3.483,4.047-17.018,2.949-24.165,4.417c-16.275,3.346-23.585,14.345-40.252,15.965c-4.117,0.625-16.739-0.057-19.083-2.104
			c-1.125-2.922-0.25-5.281,1.694-6.955c7.587,1.424,16.099,1.664,22.646-0.823c14.127-5.368,22.854-16.148,39.937-17.292
			C312.095,291.536,322.249,290.108,324.9,293.919z"/>
		<path fill-rule="evenodd" clip-rule="evenodd" fill="#F1BE9B" d="M298.739,302.122"/>
	</g>
</g>
<g id="レイヤー_15" display="none">
</g>
<g id="レイヤー_16">
	<g id="レイヤー_14_1_">
		<g>
			<path fill="#F1BE9B" d="M99.026,257.184"/>
		</g>
		<g>
			<path fill="#8E2696" d="M255.511,249.819c1.559,0,3.114,0,4.67,0c6.295,1.975,10.187,6.864,11.888,14.408c0,2.399,0,4.8,0,7.202
				c-4.131,19.862-18.062,27.845-34.813,32.413c-2.136-2.272-4.399-6.938-4.246-10.289c8.031-2.863,16.943-4.087,23.351-10.291
				c2.522-2.442,12.514-19.342,3.396-22.636c-7.382-2.668-12.561,8.766-15.284,13.374c-4.062,6.88-6.242,13.971-12.313,16.979
				c-1.886-1.141-2.125-4.286-3.396-6.174C235.412,270.393,241.408,255.192,255.511,249.819z"/>
			<path fill="#8E2696" d="M225.99,316.784c-1.342-12.103-7.193-21.206-8.104-32.273c1.468-0.263,4.46-1.121,5.789,0
				c2.145,1.755,4.2,6.595,6.174,11.692c1.527,3.942,4.884,10.338,4.632,13.097C234.124,313.249,229.342,314.897,225.99,316.784z"/>
			<path fill="#8E2696" d="M214.415,285.446c3.243,9.477,6.474,18.97,8.876,29.466c-2.665,1.879-3.291,5.621-7.333,4.677
				c-3.544-0.827-7.037-18.249-8.878-23.386c-0.949-2.646-2.934-6.502-2.7-7.95C205.032,284.207,211.489,283.825,214.415,285.446z"
				/>
			<path fill="#8E2696" d="M106.125,367.727c-1.306-0.63-5.628-5.526,0.291-7.44c17.718-5.727,26.128-21.578,37.783-34.985
				c11.447-13.166,25.152-22.525,44.154-26.754c4.506-1,14.806-5.278,14.861,5.148c-4.441,4.307-10.467,4.273-15.286,5.657
				c-16.155,4.634-29.676,13.088-39.907,25.209c-7.358,8.715-12.783,18.392-21.652,25.724
				C117.541,367.582,108.928,369.078,106.125,367.727z"/>
			<path fill="#8E2696" d="M208.732,312.439c-5.441,7.768-11.398,14.253-15.71,23.667c-4.27,9.316-6.246,19.929-9.765,30.868
				c-12.517,5.408-4.314-19.875-1.698-27.268c2.234-6.315,6.407-16.094,9.339-20.065
				C194.598,314.635,205.677,302.484,208.732,312.439z"/>
		</g>
		<g>
			<path fill="#F1BE9B" d="M122.557,271.723"/>
			<path fill="#FF6B6B" d="M156.667,232.667c23,2.333,24.497,24.995,37.291,45.765c3.21,5.209,7.819,5.925,8.105,13.564
				c-8.587,3.169-17.446-5.853-21.063-12.745c-10.299-22.066-17.333-45.931-35.333-29.431c-7.556,7.307-9.608,15.747-13.667,28.431
				c-4.245,13.268-9.721,19.731-19.25,23.896c-9.777,3.474-23.896,1.48-31.094-5.381c-1.813-1.728-1.477-4.695-0.395-7.575
				c3.3-5.313,8.389-0.581,13.895,0.934c3.479,0.959,7.673,2.462,11.579,0.936c7.418-2.896,12.429-8.635,15.823-19.337
				C128.944,251.595,143.563,231.337,156.667,232.667z"/>
			<path fill="#F1BE9B" d="M237.184,306.495"/>
			<path fill="#FF6B6B" d="M316.313,285.563c1.217,1.275,1.856,4.035,0.063,6.875c-4.75,3.766-12.675,4.202-19.375,5.868
				c-15.255,3.803-22.377,16.192-38,18.034c-3.858,0.709-16.258-1.319-18.454-3.645c-1.056-3.319-0.235-6,1.587-7.9
				c7.113,1.617,15.092,1.89,21.229-0.936c13.243-6.098,22.263-17.047,37.438-19.644
				C306.714,283.204,312.866,281.952,316.313,285.563z"/>
			<path fill="#F1BE9B" d="M291.217,296.203"/>
		</g>
	</g>
</g>
</svg>
